.
..............................Site Info...........................

 -   http://www.scenetime.com  *_*    

Scenetime .Always on time . friendly online private torrent community ..

     We care to share . Join us on  http://www.scenetime.com 

    Be the first to get new release at  http://www.scenetime.com

        Seed back for speed


...................................NFO:.................................................[IMG]http://lookpic.com/O/i2/22/i9tPJ1EA.jpeg[/IMG]

The Avengers 2012 CAM [PLANKo]

IMDb : http://www.imdb.com/title/tt0848228/



General
Complete name                            : The Avengers 2012 Cam [PLANKo].mp4
Format                                   : MPEG-4
Format profile                           : Base Media
Codec ID                                 : isom
File size                                : 700 MiB
Duration                                 : 2h 15mn
Overall bit rate mode                    : Variable
Overall bit rate                         : 721 Kbps
Encoded date                             : UTC 2012-08-12 11:40:10
Tagged date                              : UTC 2012-08-12 11:40:10

Video
ID                                       : 1
Format                                   : AVC
Format/Info                              : Advanced Video Codec
Format profile                           : High@L4.1
Format settings, CABAC                   : Yes
Format settings, ReFrames                : 3 frames
Codec ID                                 : avc1
Codec ID/Info                            : Advanced Video Coding
Duration                                 : 2h 15mn
Bit rate                                 : 592 Kbps
Maximum bit rate                         : 3 391 Kbps
Width                                    : 640 pixels
Height                                   : 288 pixels
Display aspect ratio                     : 2.222
Frame rate mode                          : Constant
Frame rate                               : 25.000 fps
Color space                              : YUV
Chroma subsampling                       : 4:2:0
Bit depth                                : 8 bits
Scan type                                : Progressive
Bits/(Pixel*Frame)                       : 0.128
Stream size                              : 575 MiB (82%)
Writing library                          : x264 core 125 r2200 999b753
Encoded date                             : UTC 2012-08-12 11:40:10
Tagged date                              : UTC 2012-08-12 11:41:30

Audio
ID                                       : 2
Format                                   : AAC
Format/Info                              : Advanced Audio Codec
Format profile                           : LC
Codec ID                                 : 40
Duration                                 : 2h 15mn
Bit rate mode                            : Variable
Bit rate                                 : 125 Kbps
Maximum bit rate                         : 131 Kbps
Channel(s)                               : 2 channels
Channel positions                        : Front: L R
Sampling rate                            : 48.0 KHz
Compression mode                         : Lossy
Stream size                              : 121 MiB (17%)
Encoded date                             : UTC 2012-08-12 11:41:23
Tagged date                              : UTC 2012-08-12 11:41:30


plot
Nick Fury of S.H.I.E.L.D. brings together a team of super humans to form The Avengers 
to help save the Earth from Loki and his army.

screens
[IMG]http://lookpic.com/O/i2/1628/6v4cLx8y.png[/IMG]
[IMG]http://lookpic.com/O/i2/787/oiH4cLSz.png[/IMG]
[IMG]http://lookpic.com/O/i2/1902/fo52T3O2.png[/IMG]